<svg xmlns="http://www.w3.org/2000/svg" viewBox="0 0 560 620" fill="none" aria-hidden="true">
  <defs>
    <linearGradient id="ha-accent" x1="0" y1="0" x2="1" y2="0">
      <stop offset="0" stop-color="#7c6cf6"/><stop offset="1" stop-color="#f5c451"/>
    </linearGradient>
    <linearGradient id="ha-spark" x1="0" y1="0" x2="1" y2="0">
      <stop offset="0" stop-color="#7c6cf6" stop-opacity="0.04"/>
      <stop offset="1" stop-color="#8f7ff8" stop-opacity="0.9"/>
    </linearGradient>
  </defs>
  <!-- value / latency sparkline -->
  <path d="M10,560 92,532 152,545 224,462 292,492 362,388 432,430 500,320 500,600 10,600 Z" fill="#7c6cf6" opacity="0.06"/>
  <polyline stroke="url(#ha-spark)" stroke-width="3.5" stroke-linecap="round" stroke-linejoin="round"
    points="10,560 92,532 152,545 224,462 292,492 362,388 432,430 500,320"/>
  <circle cx="500" cy="320" r="6" fill="#f5c451"/>
  <!-- on-device chip -->
  <g transform="translate(398,72)" opacity="0.9">
    <rect x="0" y="0" width="104" height="104" rx="22" fill="#171338" stroke="#7c6cf6" stroke-opacity="0.5"/>
    <rect x="30" y="30" width="44" height="44" rx="10" fill="url(#ha-accent)" opacity="0.9"/>
    <g stroke="#8f7ff8" stroke-width="3.5" stroke-linecap="round" opacity="0.6">
      <line x1="26" y1="-9" x2="26" y2="0"/><line x1="52" y1="-9" x2="52" y2="0"/><line x1="78" y1="-9" x2="78" y2="0"/>
      <line x1="26" y1="104" x2="26" y2="113"/><line x1="52" y1="104" x2="52" y2="113"/><line x1="78" y1="104" x2="78" y2="113"/>
      <line x1="-9" y1="26" x2="0" y2="26"/><line x1="-9" y1="52" x2="0" y2="52"/><line x1="-9" y1="78" x2="0" y2="78"/>
      <line x1="104" y1="26" x2="113" y2="26"/><line x1="104" y1="52" x2="113" y2="52"/><line x1="104" y1="78" x2="113" y2="78"/>
    </g>
  </g>
</svg>
